<?xml version="1.0" encoding="UTF-8"?>
<svg id="new_logo" data-name="new logo" xmlns="http://www.w3.org/2000/svg" viewBox="0 0 275.574097 80">
  <defs>
    <style>
      .cls-1 {
        fill: #7611b6;
      }
    </style>
  </defs>
  <path class="cls-1" d="M232.650146,30.614456h-7.365479c-1.042236,0-1.889648.845581-1.889648,1.888672l-.032715,3.105957c-1.154297-1.159607-2.491821-2.144165-3.94519-2.899231-2.379883-1.21698-5.029907-1.822266-7.695435-1.775391-6.479492-.133179-12.676514,3.638306-15.573975,9.499207-1.633545,3.231995-2.463623,6.851562-2.4021,10.4422-.068237,3.624634.746826,7.256958,2.358643,10.504761,1.454468,2.94696,3.701904,5.423889,6.495605,7.158691,2.661621,1.673035,5.720947,2.555298,8.838135,2.555298h.497925c2.588257,0,5.168823-.618042,7.481201-1.798279,1.466919-.751221,2.802612-1.746582,3.94519-2.930908v2.89325c0,1.04303.84729,1.888611,1.889648,1.888611h7.367188c1.042358,0,1.887695-.845581,1.887695-1.888611l.032837-36.755554c0-1.043091-.845337-1.888672-1.889526-1.888672ZM221.35498,56.947891c-.818359,1.534851-2.036377,2.818176-3.512939,3.705261-1.4823.851196-3.167236,1.301514-4.879395,1.301514h-.009521c-1.673462,0-3.312256-.460938-4.742432-1.336426-1.532471-.921082-2.783203-2.242615-3.611328-3.816467-.943848-1.817627-1.424316-3.860046-1.389648-5.939392-.048218-2.026489.43042-4.041321,1.380127-5.82074.837646-1.527283,2.071045-2.80542,3.559082-3.68927,1.493896-.850037,3.171265-1.275208,4.848511-1.275208,1.677368,0,3.352661.425171,4.846558,1.274048,1.528687.87323,2.773682,2.153687,3.593994,3.691406.930298,1.821838,1.395508,3.864319,1.347168,5.939392.032837,2.072021-.461304,4.135559-1.430176,5.965881Z"/>
  <path class="cls-1" d="M41.308838,9.220291L23.827881.432632c-1.350342-.576843-2.877686-.576843-4.228271,0L2.118896,9.220291c-1.240845.713379-2.037842,2.004822-2.118896,3.433777v20.044312c.079346,1.429382.876709,2.721619,2.118896,3.433594l5.580933,2.83783,2.109497,1.06897-2.109497,1.021606-5.580933,2.83783c-1.231323.704773-2.0271,1.980164-2.118896,3.395752v20.053833c.079102,1.427185.876953,2.716553,2.118896,3.424377l17.480713,8.787598c1.348389.586975,2.880127.586975,4.228271,0l17.480957-8.787598c1.241943-.707825,2.039795-1.997192,2.118896-3.424377v-20.053833c-.079346-1.429382-.876709-2.721558-2.118896-3.433594l-5.581055-2.837769-2.118896-1.059387,2.118896-1.069031,5.581055-2.762207c1.242188-.711975,2.039551-2.004211,2.118896-3.433594V12.654068c-.081177-1.429016-.87793-2.720398-2.118896-3.433777ZM32.73877,62.230362c-.029297.536011-.328369,1.020386-.794678,1.286438l-9.459351,4.729553c-.507446.217834-1.081787.217834-1.589233,0l-9.459229-4.729553c-.466187-.266052-.765503-.750427-.794678-1.286438v-9.818787c.029175-.536011.328491-1.020569.794678-1.286377l9.459229-4.729797c.504028-.233215,1.085205-.233215,1.589233,0l9.459351,4.729797c.466309.265808.765381.750366.794678,1.286377v9.818787ZM32.73877,27.590408c-.030762.5354-.32959,1.019165-.794678,1.286377l-9.459351,4.729614c-.504028.233398-1.085205.233398-1.589233,0l-9.459229-4.729614c-.464966-.267212-.763794-.750977-.794678-1.286377v-9.828369c.034302-.534302.332275-1.016602.794678-1.286377l9.459229-4.729736c.507446-.217712,1.081787-.217712,1.589233,0l9.459351,4.729736c.462402.269775.760498.752075.794678,1.286377v9.828369Z"/>
  <path class="cls-1" d="M72.825928,29.5345h-6.406738v-9.802429c0-1.162354-.927856-2.104675-2.072266-2.104675h-6.479004c-1.143188,0-2.070312.940247-2.072266,2.101257l-.014404,9.805847h-2.828491c-1.188232,0-2.151611.978271-2.151733,2.185303l-.001099,6.450684c-.000122,1.207214.963501,2.186096,2.151978,2.186096h2.829346v20.893311c0,5.3526,4.271973,9.691528,9.541504,9.691528h7.503174c1.144409,0,2.072266-.942322,2.072266-2.104736v-6.455933c0-1.162354-.927856-2.104675-2.072266-2.104675h-4.334717c-1.144531,0-2.072021-.942322-2.072021-2.104675v-17.814819h6.406738c1.144409,0,2.072266-.942322,2.072266-2.104675v-6.612732c0-1.162598-.927856-2.104675-2.072266-2.104675Z"/>
  <path class="cls-1" d="M194.737061,17.5439l-7.057129.025452c-.867676.003052-1.630493.585693-1.873291,1.431396l-10.503906,36.942261-9.089233-30.480896c-.243774-.847351-1.009644-1.429321-1.879028-1.429321h-7.55481c-.869385,0-1.634155.58197-1.879028,1.429321l-9.088135,30.480896-10.529419-36.942261c-.242798-.845703-1.005615-1.428345-1.873169-1.431396l-7.057251-.025452c-1.30835-.004639-2.253174,1.26947-1.887939,2.545227l14.066284,49.419312c.243896.849304,1.009766,1.43335,1.880371,1.43335h10.193481c.873413,0,1.641235-.587036,1.881958-1.439026l8.070679-28.483765,8.069702,28.483765c.241943.85199,1.008667,1.439026,1.88208,1.439026h10.19458c.870605,0,1.637207-.584045,1.880127-1.43335,0,0,13.675659-48.143738,14.041016-49.419495.365234-1.275574-.579834-2.549683-1.887939-2.545044Z"/>
  <path class="cls-1" d="M253.359863,17.627396h-6.901978c-1.082031,0-1.955933.88916-1.955933,1.98584v49.342285c0,1.09668.875977,1.985901,1.955933,1.985901h6.901978c1.080078,0,1.956055-.889221,1.956055-1.985901V19.613235c0-1.09668-.875977-1.98584-1.956055-1.98584Z"/>
  <path class="cls-1" d="M273.620117,17.5439h-6.904053c-1.079834,0-1.953857.890381-1.953857,1.988892v49.420105c0,1.098511.875977,1.988892,1.953857,1.988892h6.904053c1.080078,0,1.953979-.890381,1.953979-1.988892V19.532791c0-1.098511-.873901-1.988892-1.953979-1.988892Z"/>
  <path class="cls-1" d="M111.463257,31.726822c-2.49939-1.386475-5.249146-2.205505-10.352905-2.205505-4.183105,0-7.924316,1.886414-7.924316,1.886414l.023682-11.818176c0-1.09668-.875244-1.98584-1.955078-1.98584h-7.52417c-1.07959,0-1.954956.88916-1.954956,1.98584v49.374023c0,1.09552.873169,1.98407,1.951538,1.985901l7.524048.013489c1.080933.002014,1.958618-.887695,1.958374-1.98584,0,0-.001709-16.725769-.001709-19.518372,0-2.792786.64209-5.383667,2.034668-7.077698,1.508789-1.570801,3.413452-2.300293,5.86792-2.287415,2.397949.012756,4.265869.695007,5.729248,2.24292,1.525146,1.851501,2.116455,4.380188,2.116455,6.661255v19.982971c0,1.096863.875732,1.98584,1.955078,1.98584h6.523926c1.0802,0,1.955078-.888977,1.955078-1.98584v-22.314819s-.325439-6.110535-2.239502-9.359009c-1.405762-2.38562-3.144775-4.215271-5.687378-5.580139Z"/>
</svg>